<svg width="167" height="20" viewBox="0 0 167 20" xmlns="http://www.w3.org/2000/svg"><title>EIGHT CHAKARAS</title><path d="M0 19.264V.224h9.1V2.8H2.912v7.756H8.12v2.576H2.912v3.556h6.412v2.576H0zm11.844 0V.224h2.94v19.04h-2.94zm13.076.252c-2.52 0-4.438-.83-5.754-2.492-1.316-1.66-1.974-3.976-1.974-6.944v-.672c0-2.856.65-5.138 1.946-6.846C20.435.854 22.278 0 24.668 0c1.643 0 3.005.364 4.088 1.092l-1.288 2.38c-.896-.54-1.8-.812-2.716-.812-1.475 0-2.604.607-3.388 1.82-.784 1.213-1.176 2.884-1.176 5.012v.504c0 2.203.373 3.91 1.12 5.124.747 1.213 1.885 1.82 3.416 1.82.728 0 1.428-.168 2.1-.504v-3.304H23.8v-2.576h5.656v7.532c-1.38.952-2.893 1.428-4.536 1.428zm7.084-.252V.224h2.94v10.332h5.628V.224h2.94v19.04h-2.94v-6.132h-5.628v6.132h-2.94zm17.472 0V2.8h-3.892V.224h10.724V2.8h-3.892v16.464h-2.94zm20.608.252c-2.277 0-4.065-.845-5.362-2.534-1.297-1.69-1.946-4.018-1.946-6.986v-.504c0-2.95.667-5.27 2.002-6.958C66.113.844 67.956 0 70.308 0c1.307 0 2.455.327 3.444.98l-1.204 2.352c-.784-.448-1.52-.672-2.212-.672-1.456 0-2.58.607-3.374 1.82-.793 1.213-1.19 2.912-1.19 5.096v.336c0 2.203.397 3.915 1.19 5.138.793 1.223 1.927 1.834 3.402 1.834.747 0 1.56-.26 2.436-.784l1.204 2.296c-1.12.747-2.427 1.12-3.92 1.12zm5.964-.252V.224h2.94v10.332h5.628V.224h2.94v19.04h-2.94v-6.132h-5.628v6.132h-2.94zm13.328 0L95.732.056h.364l6.356 19.208h-3.08l-.728-2.38h-5.628l-.728 2.38h-2.912zm5.768-9.156l-1.372 4.34h4.116l-1.316-4.34c-.392-1.307-.625-2.23-.7-2.772-.02.037-.065.215-.14.532-.075.317-.168.695-.28 1.134-.112.44-.215.807-.308 1.106zm9.128 9.156V.224h2.912v9.996l5.152-9.996h3.052l-4.872 9.52 5.32 9.52h-3.304l-3.92-6.944-1.428 2.268v4.676h-2.912zm12.096 0L122.724.056h.364l6.356 19.208h-3.08l-.728-2.38h-5.628l-.728 2.38h-2.912zm5.768-9.156l-1.372 4.34h4.116l-1.316-4.34c-.392-1.307-.625-2.23-.7-2.772-.02.037-.065.215-.14.532-.075.317-.168.695-.28 1.134-.112.44-.215.807-.308 1.106zm16.856 9.156l-2.548-4.76c-.392.075-.84.112-1.344.112h-.896v4.648h-2.94V.224h3.836c2.072 0 3.733.625 4.984 1.876 1.25 1.25 1.876 2.977 1.876 5.18v.28c0 2.725-.98 4.713-2.94 5.964l3.136 5.74h-3.164zM134.204 2.8v9.38h.868c1.307 0 2.29-.415 2.954-1.246.663-.83.994-1.955.994-3.374v-.224c0-3.024-1.316-4.536-3.948-4.536h-.868zm8.848 16.464L149.408.056h.364l6.356 19.208h-3.08l-.728-2.38h-5.628l-.728 2.38h-2.912zm5.768-9.156l-1.372 4.34h4.116l-1.316-4.34c-.392-1.307-.625-2.23-.7-2.772-.02.037-.065.215-.14.532-.075.317-.168.695-.28 1.134-.112.44-.215.807-.308 1.106zm12.6 9.408c-1.997 0-3.612-.635-4.844-1.904l1.736-2.072c.99.915 1.997 1.372 3.024 1.372.803 0 1.442-.215 1.918-.644.476-.43.714-1 .714-1.708v-.224c0-.56-.145-1.07-.434-1.526-.29-.457-.79-.985-1.498-1.582l-1.848-1.568c-.952-.803-1.652-1.582-2.1-2.338-.448-.756-.672-1.647-.672-2.674v-.196c0-1.307.443-2.375 1.33-3.206.887-.83 2.04-1.246 3.458-1.246 1.512 0 2.837.4 3.976 1.204l-1.4 2.24c-.82-.58-1.652-.868-2.492-.868-.58 0-1.064.168-1.456.504-.392.336-.588.775-.588 1.316v.14c0 .58.145 1.078.434 1.498.29.42.78.92 1.47 1.498l1.904 1.596c.97.82 1.685 1.63 2.142 2.422.457.793.686 1.685.686 2.674v.28c0 1.475-.485 2.68-1.456 3.612-.97.933-2.305 1.4-4.004 1.4z" fill="#000" fill-rule="evenodd"/></svg>