<?xml version="1.0" standalone="no"?>
<!DOCTYPE svg PUBLIC "-//W3C//DTD SVG 20010904//EN"
 "http://www.w3.org/TR/2001/REC-SVG-20010904/DTD/svg10.dtd">
<svg version="1.0" xmlns="http://www.w3.org/2000/svg"
 width="260.000000pt" height="260.000000pt" viewBox="0 0 260.000000 260.000000"
 preserveAspectRatio="xMidYMid meet">
<metadata>
Created by potrace 1.11, written by Peter Selinger 2001-2013
</metadata>
<g transform="translate(0.000000,260.000000) scale(0.100000,-0.100000)"
fill="#000000" stroke="none">
<path d="M0 1300 l0 -1300 1300 0 1300 0 0 1300 0 1300 -1300 0 -1300 0 0
-1300z m1830 794 c36 -9 103 -35 150 -57 68 -33 103 -59 173 -128 48 -47 87
-90 87 -95 0 -8 -173 -134 -183 -134 -3 0 -33 28 -69 63 -102 100 -224 147
-383 147 -248 0 -443 -143 -522 -384 -23 -70 -26 -98 -26 -206 0 -108 3 -136
26 -206 80 -242 276 -384 532 -384 163 0 298 53 407 161 l68 66 95 -64 c82
-55 94 -66 86 -82 -6 -10 -49 -55 -96 -100 -142 -133 -299 -197 -520 -208
-120 -7 -218 7 -338 47 l-88 30 -440 0 -439 0 0 735 0 735 439 0 439 0 56 26
c99 45 214 65 356 60 70 -3 154 -12 190 -22z"/>
<path d="M587 1823 c-4 -3 -7 -141 -7 -305 l0 -298 104 0 103 0 6 113 c4 61
13 141 22 176 18 73 83 219 120 267 14 18 25 37 25 43 0 12 -362 16 -373 4z"/>
<path d="M580 895 l0 -125 195 0 195 0 -39 58 c-22 32 -54 88 -70 125 l-30 67
-126 0 -125 0 0 -125z"/>
</g>
</svg>
