<?xml version="1.0" encoding="UTF-8" standalone="no"?>
<svg width="20px" height="20px" viewBox="0 0 20 20" version="1.1" xmlns="http://www.w3.org/2000/svg" xmlns:xlink="http://www.w3.org/1999/xlink">
    <!-- Generator: Sketch 3.6.1 (26313) - http://www.bohemiancoding.com/sketch -->
    <title>Artboard 43</title>
    <desc>Created with Sketch.</desc>
    <defs></defs>
    <g stroke="none" stroke-width="1" fill="none" fill-rule="evenodd">
        <g>
            <g>
                <rect fill="#000000" x="0" y="0" width="20" height="20"></rect>
                <g transform="translate(2.692308, 3.692308)" fill="#FFFFFF">
                    <path d="M4.47730741e-12,11.9703565 L8.72488462,11.9703569 L7.41365854,10.3947467 L1.77463415,10.3947467 L1.77463415,8.48742964 L4.17807556,8.48742957 L4.17807556,6.94499054 L1.77463415,6.94499062 L1.77463415,2.26791745 L7.18146341,2.26791745 L8.30706611,0.692307692 L4.47730741e-12,0.692307692 L4.47730741e-12,11.9703565 Z"></path>
                    <path d="M9.60236824,12.6162543 C11.9882502,12.6162543 13.596913,11.7848106 14.8621534,10.1038484 L13.3619397,9.0735812 C12.4401217,10.2665222 11.2652556,10.8629926 9.67466769,10.8629926 C7.19841147,10.8629926 5.39092517,8.96513203 5.39092517,6.30812717 C5.39092517,3.70534691 7.16226174,1.75326171 9.60236824,1.75326171 C11.2291059,1.75326171 12.277448,2.33165732 13.0908168,3.43422396 L14.5729556,2.38588191 C13.5065386,0.885668285 11.9340256,4.35207426e-14 9.65659283,4.35207426e-14 C6.15006942,4.35207426e-14 3.38461538,2.67507972 3.38461538,6.30812717 C3.38461538,9.94117463 6.09584483,12.6162543 9.60236824,12.6162543 L9.60236824,12.6162543 Z"></path>
                </g>
            </g>
        </g>
    </g>
</svg>